# xmcd CD database file
#
# Track frame offsets:
#	183
#	16790
#	36310
#	51280
#	59670
#	72590
#	81520
#	94260
#	109643
#	125118
#	137705
#	152810
#	162898
#	206578
#	219383
#	233080
#	241290
#
# Disc length: 3380 seconds
#
# Revision: 0
# Processed by: cddbd v1.4PL0 Copyright (c) Steve Scherf et al.
# Submitted via: CDex 1.50
#
DISCID=f80d3211
DTITLE=Claude Gallenca - Le voyage du Goeland
DYEAR=1988
DGENRE=New Age
TTITLE0=Soraya
TTITLE1=Le voyage du Goeland
TTITLE2=Vol de nuit
TTITLE3=Arlequin
TTITLE4=Labyrinthe
TTITLE5=Tristesse
TTITLE6=Gnossienne
TTITLE7=Habanera
TTITLE8=Eclipse occitane
TTITLE9=Génèse
TTITLE10=Concertino
TTITLE11=La Fenice
TTITLE12=Le récit du Drakkar
TTITLE13=Rosa di Bahia
TTITLE14=Synphonie cosmique
TTITLE15=Blue ballad
TTITLE16=Rivière d'argent
EXTD=YEAR: 1988
EXTT0=
EXTT1=
EXTT2=
EXTT3=
EXTT4=
EXTT5=
EXTT6=
EXTT7=
EXTT8=
EXTT9=
EXTT10=
EXTT11=
EXTT12=
EXTT13=
EXTT14=
EXTT15=
EXTT16=
PLAYORDER=
